ISO-10303-21;
HEADER;
FILE_DESCRIPTION(('','ExchangeRequirement[Architecture, Structural, BuildingService]'),'2;1');
FILE_NAME('export.ifc','2026-06-02T18:13:48',('User '),('Organization'),'ODA SDAI 26.12','Bentley iModel IFC Export',' ');
FILE_SCHEMA(('IFC4X3_ADD2'));
ENDSEC;
DATA;
#1=IFCORGANIZATION($,'Organization',$,$,$);
#2=IFCPERSON($,$,'User',$,$,$,$,$);
#3=IFCPERSONANDORGANIZATION(#2,#1,$);
#4=IFCORGANIZATION($,'Bentley Systems',$,$,$);
#5=IFCAPPLICATION(#4,'1.0.0.249','Bentley iModel IFC Export','iModel2IFC');
#6=IFCOWNERHISTORY(#3,#5,$,.NOCHANGE.,$,#3,#5,1780416828);
#7=IFCCARTESIANPOINT((0.,0.,0.));
#8=IFCPROJECT('09sobggWD1Cf5JkgsYmvLi',#6,'MyProject','Set common project information, site address, building name, etc',$,$,$,(#12,#14),#18);
#9=IFCDIRECTION((0.,0.,1.));
#10=IFCDIRECTION((1.,0.,0.));
#11=IFCAXIS2PLACEMENT3D(#7,#9,#10);
#12=IFCGEOMETRICREPRESENTATIONCONTEXT($,'Model',3,1.E-07,#11,#13);
#13=IFCDIRECTION((0.,1.));
#14=IFCGEOMETRICREPRESENTATIONCONTEXT($,'Annotation',3,1.E-07,#11,$);
#15=IFCSITE('1LtW9QroTAh9QB4MS6sFDc',#6,'Site',$,$,#29,$,$,.ELEMENT.,(32,7,25,921925),(-19,-55,-14,-91839),0.,$,$);
#16=IFCRELAGGREGATES('1VAh5qLqf40gantvcJUZuV',#6,$,$,#8,(#15));
#17=IFCSIUNIT(*,.LENGTHUNIT.,$,.METRE.);
#18=IFCUNITASSIGNMENT((#17,#19,#20,#24));
#19=IFCSIUNIT(*,.AREAUNIT.,$,.SQUARE_METRE.);
#20=IFCSIUNIT(*,.VOLUMEUNIT.,$,.CUBIC_METRE.);
#21=IFCSIUNIT(*,.PLANEANGLEUNIT.,$,.RADIAN.);
#22=IFCDIMENSIONALEXPONENTS(0,0,0,0,0,0,0);
#23=IFCMEASUREWITHUNIT(IFCRATIOMEASURE(0.0174533),#21);
#24=IFCCONVERSIONBASEDUNIT(#22,.PLANEANGLEUNIT.,'degree',#23);
#25=IFCPROJECTEDCRS('EPSG:2056','CH1903+ / LV95','CH1903Plus_1','CH1903Plus_1','SWISS',$,#17);
#26=IFCMAPCONVERSION(#12,#25,0.,0.,0.,1.,0.,1.);
#27=IFCCARTESIANPOINT((0.,0.46506350946,2.894));
#28=IFCAXIS2PLACEMENT3D(#27,#9,#10);
#29=IFCLOCALPLACEMENT($,#28);
#49=IFCCOLOURRGB($,0.,0.843137254901961,0.607843137254902);
#50=IFCSURFACESTYLERENDERING(#49,$,$,$,$,$,$,$,.NOTDEFINED.);
#51=IFCSURFACESTYLE($,.BOTH.,(#50));
#55=IFCGEOMETRICREPRESENTATIONSUBCONTEXT('Body','Model',*,*,*,*,#12,1.,.MODEL_VIEW.,$);
#61=IFCRELCONTAINEDINSPATIALSTRUCTURE('05WyZnB2L7ZOGDi8789QLF',#6,$,$,(#65,#119,#145,#174),#15);
#65=IFCFOOTING('0IbIkN5DCiJv$gMnQoRkOH',#6,'Extended Element','[Generic].[PhysicalObject]','<null>',#91,#87,'88',.STRIP_FOOTING.);
#66=IFCPROPERTYSINGLEVALUE('In Spatial Index',$,IFCBOOLEAN(.T.),$);
#67=IFCPROPERTYSINGLEVALUE('Last Modified',$,IFCDATETIME('2026-06-02T16:13:47.701Z'),$);
#68=IFCPROPERTYSINGLEVALUE('Federation GUID',$,IFCTEXT('972b9512-d314-4f2c-9fea-5b16b26ee611'),$);
#69=IFCPROPERTYSINGLEVALUE('User Label',$,IFCTEXT('Extended Element'),$);
#70=IFCPROPERTYSINGLEVALUE('Origin',$,IFCTEXT('-5,-13.92210504893678,0.69999999999999962'),$);
#71=IFCPROPERTYSINGLEVALUE('Yaw',$,IFCREAL(0.),$);
#72=IFCPROPERTYSINGLEVALUE('Pitch',$,IFCREAL(0.),$);
#73=IFCPROPERTYSINGLEVALUE('Roll',$,IFCREAL(0.),$);
#74=IFCPROPERTYSINGLEVALUE('Bounding Box Low',$,IFCTEXT('-0.25500000000000278,11.525763452493246,-0.69999999999999973'),$);
#75=IFCPROPERTYSINGLEVALUE('Bounding Box High',$,IFCTEXT('10.254999999999997,15.272105048936782,-0.19999999999999971'),$);
#76=IFCPROPERTYSET('3nJmZOTRT2AOSNQxhio5Og',#6,'[Generic].[PhysicalObject]',$,(#66,#67,#68,#69,#70,#71,#72,#73,#74,#75));
#77=IFCRELDEFINESBYPROPERTIES('3ZyPXeDmHFV8gXyxhlFQGC',#6,$,$,(#65),#76);
#78=IFCCARTESIANPOINTLIST3D(((-4.68471011921142,0.771336990363469,-0.25),(-3.42367865642269,-1.61724770018174,-0.25),(-3.905,-1.87317079822177,-0.25),(-4.09664952830606,1.04188779182323,-0.25),(-2.92567749457827,-1.39552329761162,-0.25),(-2.87619802565759,1.47195830796809,-0.25),(-1.8894100046334,-1.0588195795627,-0.25),(-2.41342272606834,-1.20907780951308,-0.25),(2.87619802565759,1.4719583079681,-0.25),(3.49304894253122,1.2757239045149,-0.25),(2.41342272606834,-1.20907780951308,-0.25),(4.09664952830606,1.04188779182323,-0.25),(2.92567749457827,-1.39552329761162,-0.25),(4.68471011921142,0.771336990363475,-0.25),(3.4236786564227,-1.61724770018174,-0.25),(-3.49304894253122,1.27572390451489,-0.25),(-2.24843670450029,1.62984661787517,-0.25),(-1.61214629277498,1.7487899097958,-0.25),(-1.35619226757872,-0.945480650752886,-0.25),(-0.969740457959305,1.82833699108258,-0.25),(-0.816367298120372,-0.869613198952019,-0.25),(-0.32365606542535,1.86818611240924,-0.25),(-0.27256506924653,-0.831586842759094,-0.25),(0.323656065425351,1.86818611240924,-0.25),(0.272565069246533,-0.831586842759094,-0.25),(0.969740457959303,1.82833699108258,-0.25),(0.816367298120375,-0.869613198952017,-0.25),(1.88941000463341,-1.0588195795627,-0.25),(2.24843670450029,1.62984661787517,-0.25),(1.61214629277498,1.7487899097958,-0.25),(1.35619226757873,-0.945480650752886,-0.25),(5.255,0.465097791996222,-0.25),(3.905,-1.87317079822176,-0.25),(-5.255,0.465097791996214,-0.25),(3.905,-1.87317079822176,0.0499999999999999),(3.4542746706104,-1.63225309040793,0.0499999999999999),(3.42324916171044,-1.61819561521138,0.0499999999999999),(2.98875760677135,-1.42133005286508,0.0499999999999999),(2.92499669293247,-1.39733214419379,0.0499999999999999),(2.51044222401769,-1.24130489042146,0.0499999999999999),(2.41264588944524,-1.21163869665995,0.0499999999999999),(2.02137674225069,-1.09294849846061,0.0499999999999999),(1.88866727114411,-1.0620049897738,0.0499999999999999),(1.52365541494597,-0.976896161829004,0.0499999999999999),(1.35558679881002,-0.949147921002821,0.0499999999999999),(1.01940956123861,-0.893644834448773,0.0499999999999999),(0.815973828442612,-0.873608163632703,0.0499999999999999),(0.510798439287422,-0.843551011284738,0.0499999999999999),(5.32907051820075E-15,-0.826829201778231,0.0499999999999999),(0.272428860182618,-0.83574759923928,0.0499999999999999),(-0.510798439287412,-0.843551011284738,0.0499999999999999),(-0.272428860182615,-0.83574759923928,0.0499999999999999),(-1.0194095612386,-0.893644834448772,0.0499999999999999),(-0.815973828442609,-0.873608163632703,0.0499999999999999),(-1.52365541494596,-0.976896161829002,0.0499999999999999),(-1.35558679881002,-0.949147921002821,0.0499999999999999),(-2.02137674225068,-1.09294849846061,0.0499999999999999),(-1.8886672711441,-1.0620049897738,0.0499999999999999),(-2.51044222401768,-1.24130489042146,0.0499999999999999),(-2.41264588944524,-1.21163869665995,0.0499999999999999),(-2.98875760677134,-1.42133005286508,0.0499999999999999),(-2.92499669293247,-1.39733214419379,0.0499999999999999),(-3.45427467061039,-1.63225309040793,0.0499999999999999),(-3.42324916171044,-1.61819561521138,0.0499999999999999),(-3.905,-1.87317079822177,0.0499999999999999),(4.6,-0.669395486961394,0.15),(4.06905595001481,-0.385599979677497,0.15),(3.52068757775883,-0.137137502674392,0.15),(2.95724308078909,0.0749279895767412,0.15),(2.38113521494319,0.249688400081197,0.15),(1.79483096254838,0.386395377931489,0.15),(1.20084096842448,0.484463522860825,0.15),(0.60170878891732,0.54347289201692,0.15),(5.32907051820075E-15,0.563170798221769,0.15),(-0.60170878891731,0.54347289201692,0.15),(-1.20084096842447,0.484463522860825,0.15),(-1.79483096254837,0.386395377931491,0.15),(-2.38113521494318,0.249688400081199,0.15),(-2.95724308078908,0.0749279895767412,0.15),(-3.52068757775882,-0.137137502674392,0.15),(-4.0690559500148,-0.385599979677496,0.15),(-4.6,-0.669395486961397,0.15),(4.6,-0.669395486961394,0.25),(4.06905595001481,-0.385599979677496,0.25),(3.52068757775882,-0.13713750267439,0.25),(2.95724308078909,0.074927989576743,0.25),(2.38113521494319,0.249688400081199,0.25),(1.79483096254838,0.386395377931491,0.25),(1.20084096842447,0.484463522860825,0.25),(0.601708788917316,0.543472892016922,0.25),(-8.88178419700125E-16,0.563170798221769,0.25),(-0.601708788917316,0.54347289201692,0.25),(-1.20084096842448,0.484463522860825,0.25),(-1.79483096254838,0.386395377931487,0.25),(-2.38113521494319,0.249688400081196,0.25),(-2.95724308078909,0.0749279895767394,0.25),(-3.52068757775883,-0.137137502674396,0.25),(-4.06905595001481,-0.385599979677499,0.25),(-4.6,-0.669395486961397,0.25),(3.8978587329268,0.5722259776713,0.25),(3.3235479947966,0.794715142934539,0.25),(4.45738355776539,0.314803711772386,0.25),(1.53391654878686,1.24482551903436,0.25),(0.922683594633026,1.32051256117211,0.25),(0.307950585561709,1.35842799535543,0.25),(-3.32354799479659,0.794715142934541,0.25),(-3.89785873292679,0.572225977671302,0.25),(-4.45738355776538,0.314803711772386,0.25),(2.73662990072084,0.981427229949956,0.25),(2.13933083206498,1.13165397581777,0.25),(-0.307950585561699,1.35842799535543,0.25),(-0.922683594633015,1.32051256117211,0.25),(-1.53391654878685,1.24482551903436,0.25),(-2.13933083206497,1.13165397581777,0.25),(-2.73662990072083,0.981427229949956,0.25),(-5.,0.02342483606615,0.25),(5.,0.0234248360661571,0.25),(-5.005,0.0320850901039957,0.15),(-5.255,0.465097791996214,0.05),(5.005,0.0320850901040011,0.15),(5.255,0.46509779199622,0.05),(-4.46184094132315,0.323755344685939,0.15),(-3.90175659165972,0.581435032850752,0.15),(-3.32687154279139,0.804146687279253,0.15),(-2.73936653062155,0.991045486381685,0.15),(-2.14147016289704,1.14142245899537,0.15),(-1.53545046533564,1.25470717375517,0.15),(-0.923606278227648,1.33046990293506,0.15),(-0.30825853614726,1.36842325255256,0.15),(0.308258536147271,1.36842325255256,0.15),(0.923606278227658,1.33046990293506,0.15),(1.53545046533565,1.25470717375517,0.15),(2.14147016289705,1.14142245899537,0.15),(2.73936653062156,0.991045486381685,0.15),(3.3268715427914,0.804146687279253,0.15),(3.90175659165973,0.581435032850752,0.15),(4.46184094132316,0.323755344685939,0.15),(-4.68471011921142,0.771336990363469,0.05),(-4.09664952830606,1.04188779182323,0.05),(-3.49304894253122,1.27572390451489,0.05),(-2.87619802565759,1.47195830796809,0.05),(-2.24843670450028,1.62984661787517,0.05),(-1.61214629277498,1.7487899097958,0.05),(-0.9697404579593,1.82833699108258,0.05),(-0.323656065425346,1.86818611240924,0.05),(0.323656065425356,1.86818611240924,0.05),(0.969740457959309,1.82833699108258,0.05),(1.61214629277499,1.7487899097958,0.05),(2.24843670450029,1.62984661787517,0.05),(2.8761980256576,1.47195830796809,0.05),(3.49304894253123,1.27572390451489,0.05),(4.09664952830607,1.04188779182323,0.05),(4.68471011921143,0.771336990363469,0.05)),$);
#79=IFCTRIANGULATEDFACESET(#78,$,$,((1,2,3),(4,5,2),(6,7,8),(9,10,11),(10,12,13),(12,14,15),(2,1,4),(16,8,5),(8,16,6),(17,18,19),(18,20,21),(20,22,23),(24,25,23),(26,27,25),(28,29,9),(15,13,12),(5,4,16),(19,7,17),(23,21,20),(25,24,26),(30,31,27),(29,28,31),(13,11,10),(14,32,33),(6,17,7),(23,22,24),(31,30,29),(33,15,14),(21,19,18),(11,28,9),(27,26,30),(3,34,1),(33,35,36),(36,15,33),(15,37,38),(38,13,15),(13,39,40),(40,11,13),(11,41,42),(42,28,11),(28,43,44),(44,31,28),(31,45,46),(46,27,31),(27,47,48),(48,25,27),(23,25,49),(25,50,49),(21,23,51),(23,52,51),(19,21,53),(21,54,53),(7,19,55),(19,56,55),(8,7,57),(7,58,57),(5,8,59),(8,60,59),(2,5,61),(5,62,61),(3,2,63),(2,64,63),(63,65,3),(61,64,2),(59,62,5),(57,60,8),(55,58,7),(53,56,19),(51,54,21),(49,52,23),(48,50,25),(46,47,27),(44,45,31),(42,43,28),(40,41,11),(38,39,13),(36,37,15),(66,67,36),(68,38,37),(37,67,68),(69,40,39),(39,68,69),(70,42,41),(41,69,70),(71,44,43),(43,70,71),(72,46,45),(45,71,72),(73,48,47),(47,72,73),(74,49,50),(50,73,74),(74,75,52),(75,51,52),(75,76,54),(76,53,54),(76,77,56),(77,55,56),(77,78,58),(78,57,58),(78,79,60),(79,59,60),(79,80,62),(80,61,62),(80,81,64),(81,63,64),(81,82,65),(65,63,81),(64,61,80),(62,59,79),(60,57,78),(58,55,77),(56,53,76),(54,51,75),(52,49,74),(50,48,73),(47,46,72),(45,44,71),(43,42,70),(41,40,69),(39,38,68),(37,36,67),(36,35,66),(67,66,83),(68,67,84),(69,68,85),(70,69,86),(71,70,87),(72,71,88),(73,72,89),(74,73,90),(75,74,91),(76,75,92),(77,76,93),(78,77,94),(79,78,95),(80,79,96),(81,80,97),(82,81,98),(98,99,82),(97,98,81),(96,97,80),(95,96,79),(94,95,78),(93,94,77),(92,93,76),(91,92,75),(90,91,74),(89,90,73),(88,89,72),(87,88,71),(86,87,70),(85,86,69),(84,85,68),(83,84,67),(100,85,84),(101,86,85),(102,84,83),(85,100,101),(103,89,88),(104,90,89),(105,91,90),(106,107,97),(107,108,98),(84,102,100),(109,87,86),(110,88,87),(89,103,104),(90,104,105),(111,112,92),(113,114,94),(114,115,95),(115,106,96),(98,97,107),(86,101,109),(88,110,103),(92,91,111),(112,113,93),(95,94,114),(97,96,106),(87,109,110),(93,92,112),(96,95,115),(108,116,99),(105,111,91),(99,98,108),(94,93,113),(83,117,102),(34,82,118),(82,99,116),(116,118,82),(3,65,82),(82,34,3),(118,119,34),(66,120,117),(32,121,120),(33,32,66),(120,66,32),(117,83,66),(66,35,33),(118,116,108),(122,108,107),(123,107,106),(124,106,115),(125,115,114),(126,114,113),(127,113,112),(128,112,111),(129,111,105),(130,105,104),(131,104,103),(132,103,110),(133,110,109),(134,109,101),(135,101,100),(136,100,102),(137,102,117),(117,120,137),(102,137,136),(100,136,135),(101,135,134),(109,134,133),(110,133,132),(103,132,131),(104,131,130),(105,130,129),(111,129,128),(112,128,127),(113,127,126),(114,126,125),(115,125,124),(106,124,123),(107,123,122),(108,122,118),(119,118,122),(138,122,123),(139,123,124),(140,124,125),(141,125,126),(142,126,127),(143,127,128),(144,128,129),(145,129,130),(146,130,131),(147,131,132),(148,132,133),(149,133,134),(150,134,135),(151,135,136),(152,136,137),(153,137,120),(120,121,153),(137,153,152),(136,152,151),(135,151,150),(134,150,149),(133,149,148),(132,148,147),(131,147,146),(130,146,145),(129,145,144),(128,144,143),(127,143,142),(126,142,141),(125,141,140),(124,140,139),(123,139,138),(122,138,119),(34,119,138),(1,138,139),(4,139,140),(16,140,141),(6,141,142),(17,142,143),(18,143,144),(20,144,145),(22,145,146),(24,146,147),(26,147,148),(30,148,149),(29,149,150),(9,150,151),(10,151,152),(12,152,153),(14,153,121),(121,32,14),(153,14,12),(152,12,10),(151,10,9),(150,9,29),(149,29,30),(148,30,26),(147,26,24),(146,24,22),(145,22,20),(144,20,18),(143,18,17),(142,17,6),(141,6,16),(140,16,4),(139,4,1),(138,1,34)),$);
#80=IFCSTYLEDITEM(#79,(#51),$);
#81=IFCAXIS2PLACEMENT3D(#7,#9,#10);
#82=IFCSHAPEREPRESENTATION(#55,'Body','Tessellation',(#79));
#83=IFCREPRESENTATIONMAP(#81,#82);
#84=IFCCARTESIANTRANSFORMATIONOPERATOR3DNONUNIFORM($,$,#7,$,$,$,$);
#85=IFCMAPPEDITEM(#83,#84);
#86=IFCSTYLEDITEM(#85,(#51),$);
#87=IFCPRODUCTDEFINITIONSHAPE($,$,(#88));
#88=IFCSHAPEREPRESENTATION(#55,'Body','MappedRepresentation',(#85));
#89=IFCCARTESIANPOINT((0.,-0.98823430768,-2.644));
#90=IFCAXIS2PLACEMENT3D(#89,#9,#10);
#91=IFCLOCALPLACEMENT(#29,#90);
#119=IFCWALL('0E_BvhVh5FHQgOhO$NRT_$',#6,'Smart Solid','[Generic].[PhysicalObject]','<null>',#144,#140,'90',.RETAININGWALL.);
#120=IFCPROPERTYSINGLEVALUE('In Spatial Index',$,IFCBOOLEAN(.T.),$);
#121=IFCPROPERTYSINGLEVALUE('Last Modified',$,IFCDATETIME('2026-06-02T16:13:47.705Z'),$);
#122=IFCPROPERTYSINGLEVALUE('Federation GUID',$,IFCTEXT('6bbef80e-b17e-454f-aa98-ad8fd76ddfbf'),$);
#123=IFCPROPERTYSINGLEVALUE('User Label',$,IFCTEXT('Smart Solid'),$);
#124=IFCPROPERTYSINGLEVALUE('Origin',$,IFCTEXT('-4.9999999999999964,-0.49974596215561606,0.49999999999999956'),$);
#125=IFCPROPERTYSINGLEVALUE('Yaw',$,IFCREAL(0.),$);
#126=IFCPROPERTYSINGLEVALUE('Pitch',$,IFCREAL(0.),$);
#127=IFCPROPERTYSINGLEVALUE('Roll',$,IFCREAL(0.),$);
#128=IFCPROPERTYSINGLEVALUE('Bounding Box Low',$,IFCTEXT('2.4286128663675299e-15,-0.69282032302754915,0'),$);
#129=IFCPROPERTYSINGLEVALUE('Bounding Box High',$,IFCTEXT('10.000000000000004,1.339745962155614,4'),$);
#130=IFCPROPERTYSET('3Z4NU4LhH2sxFqXQQwAOiu',#6,'[Generic].[PhysicalObject]',$,(#120,#121,#122,#123,#124,#125,#126,#127,#128,#129));
#131=IFCRELDEFINESBYPROPERTIES('3$2AjS7UHAkgTB3_BTKptw',#6,$,$,(#119),#130);
#132=IFCCARTESIANPOINTLIST3D(((1.67688078294328,0.330128312314972,0.358944594177487),(1.57246731984929,0.34270854644993,0.404968329404308),(1.59681115944956,0.339040647198741,0.401488116538896),(1.63930665374739,0.333689852906262,0.385033298716573),(1.71099544839655,0.328306324083738,0.321330164798321),(1.7120007160025,0.328256182805872,0.320186764505202),(1.59629800318189,0.339105260957766,0.40168681743739),(1.51469210362592,0.391743586577036,0.0153182233901763),(1.49490190824229,0.394651219644255,0.0188791928871193),(1.48756322071827,0.395527647172844,0.0221906535521126),(1.56845392744365,0.383194125060273,0.012063752152633),(1.54186021580674,0.387751968514679,0.0104297007207395),(1.69380066616308,0.329163974672208,0.340887662652083),(1.72377202257482,0.328608015982395,0.29753379060351),(1.54696015345201,0.34665711172487,0.407575068688694),(1.5508024974223,0.345984345941364,0.407951599882248),(1.7356561241327,0.329186090823823,0.272464836830892),(1.44298097233416,0.367007473050938,0.376228407607471),(1.46216346097764,0.362591219289183,0.388542278670536),(1.46147427887322,0.39864333601365,0.0339628545660364),(1.67956175871801,0.329874190549537,0.357083122298829),(1.52039395803706,0.351308654484002,0.404971709555535),(1.46728529623393,0.361565296454017,0.390318211390773),(1.42004974052894,0.372440016853845,0.359996152905359),(1.42379848369066,0.371423726812695,0.363914536544402),(1.3845946173383,0.382572812141067,0.317797641430557),(1.39224614495521,0.379977614408738,0.330934371582242),(1.59388983578416,0.378738767505632,0.014573315110304),(1.39735335300547,0.403757163946699,0.0879948989425667),(1.38168958699438,0.404301465206037,0.108149174967356),(1.54278230560273,0.387616492399877,0.0102637835292576),(1.59110887242011,0.379291430896059,0.013652206141813),(1.36113678926729,0.402819902323906,0.156258128446979),(1.72137776036028,0.347987512147223,0.110230595673472),(1.71048763401644,0.351807671370806,0.090285363876788),(1.73395183830542,0.343528022069148,0.133739638013322),(1.73371798919728,0.343658669898356,0.132831685578825),(1.73466401379724,0.328933567258024,0.276572991444729),(1.40068977275387,0.377688533916223,0.339760095723124),(1.36288209143827,0.39095992668431,0.27042867048196),(1.36920743951951,0.387791739782919,0.291379753013763),(1.38107040735561,0.404262720079789,0.109540417838951),(1.41516418859541,0.402970767162443,0.0667305108888381),(1.41184703736026,0.403253521933585,0.0693461451948458),(1.4503599497471,0.399970671995192,0.0389780106955842),(1.65726770334336,0.36550416533543,0.0418744297802633),(1.63696238791687,0.370178919862983,0.0288397792349793),(1.70849140018026,0.352354829567569,0.0881398326684106),(1.7408418818035,0.339678662825001,0.160491212212226),(1.74591385149172,0.336049340358191,0.188034429901049),(1.74586082850546,0.336874656015974,0.179977986879972),(1.49373644565471,0.356267031896636,0.39948981871385),(1.50527281096018,0.353956254605006,0.403489910007968),(1.3711517232999,0.387132289656031,0.294717848703931),(1.37047953683627,0.403599997035209,0.133337184062476),(1.36170929345429,0.40305119961717,0.153043159232607),(1.61710964521445,0.374124273560573,0.0222641660540415),(1.69182373391264,0.356923357589665,0.0702255996262386),(1.67757301876985,0.360829410807877,0.0549090803255452),(1.74610234754098,0.333115353575236,0.216674983510505),(1.43748122545065,0.401068457559642,0.0491331199141536),(1.35589084701305,0.394506090492114,0.246833435441294),(1.74233081616552,0.330885011772936,0.244826109674698),(1.7461826500363,0.331865425734118,0.228876342272407),(1.35592438995696,0.394444841413706,0.247383080564322),(1.35311308890767,0.39957824887009,0.201316226233784),(1.78658257834748,0.59368789194077,0.573843839494972),(1.81642768111452,0.590569102710089,0.549147178280443),(1.75155940652064,0.597939590158988,0.595636322708341),(1.82730610632805,0.589432316026271,0.540145340218659),(1.84682532666915,0.587893268412875,0.518312087300198),(1.87002828764599,0.586216544024482,0.490702441019875),(1.87489595530024,0.586072990246225,0.482708690535387),(1.86283839426571,0.586630673235558,0.500400646744348),(1.89777729144302,0.585398190221207,0.445132646961932),(1.89903080441897,0.585451674100721,0.442156856297461),(1.91789261976586,0.586256454808069,0.397379646087975),(1.92994447673449,0.588720591309668,0.349465074432727),(1.91861308390425,0.586287194990187,0.395669292467193),(1.9220236942316,0.586692824808828,0.384982422444195),(1.93364223664007,0.589667239404343,0.332884057925682),(1.93595731704285,0.592539873309062,0.300140467292771),(1.93721151049376,0.595472875389278,0.2689075200086),(1.93521195400616,0.597737958264766,0.250661070297543),(1.93741602629827,0.594349891509381,0.279509054813814),(1.93144686850861,0.602003019411152,0.21630372974977),(1.92773850274179,0.604166129180649,0.202392634895864),(1.91781018172121,0.609957372424915,0.165148785679788),(1.91460105868621,0.611489339078157,0.156410306020647),(1.89482625965069,0.619675548950994,0.114567909753279),(1.91425669118892,0.611653732750993,0.155472589286983),(1.87073669189132,0.628188669856446,0.0772866026503212),(1.89181497822059,0.620918750683863,0.108228601146478),(1.85581164695971,0.633150617510739,0.0570692192901188),(1.8436126886665,0.636724726764774,0.0448445849111034),(1.86233447974585,0.631086600087307,0.0649525242765843),(1.81917554552334,0.643884438057396,0.0203560070331905),(1.78385670738604,0.653096524077918,-0.00539296516901722),(1.7682812849222,0.657013114370996,-0.015556464967329),(1.72147649934891,0.66773284429453,-0.0377287998414024),(1.77710013056181,0.654858817805336,-0.0103188041264852),(1.71370026129039,0.669331293397852,-0.0400170192433456),(1.67270240596329,0.67775863121757,-0.0520809616396019),(1.67144528001482,0.678017040467643,-0.0524508808684518),(1.66125749241914,0.679975606414182,-0.0544381919862138),(1.62820332640833,0.68590251232713,-0.0577501627858006),(1.58156113760004,0.6936734952949,-0.0581055256717344),(1.60947641732137,0.689260413662847,-0.0596265669898044),(1.55706373678154,0.697546249953438,-0.0567707169504084),(1.54647577548082,0.699084431251762,-0.0552028807386906),(1.49553477761227,0.705828198095983,-0.0428006809768666),(1.53375947389029,0.700767864569433,-0.0521069438871142),(1.48620015828555,0.706855874239137,-0.0389533843868788),(1.48023467081086,0.707512632586253,-0.0364946874849836),(1.44665042577772,0.711210022506323,-0.0226528213230208),(1.43664190278564,0.712167490890897,-0.0174031753724775),(1.39798609457361,0.71527647930717,0.00762503107912593),(1.44021761828994,0.711825418983753,-0.0192787009052973),(1.39234250316126,0.715730379022082,0.0112790478370215),(1.36029219678346,0.717395287845481,0.039692724457872),(1.35256754362564,0.717796558368406,0.0465408897841915),(1.34430202257152,0.718054861274317,0.0553613466658165),(1.32827715782977,0.71816781096601,0.0759751580167842),(1.31177474918819,0.718284126579171,0.0972032647157275),(1.3019293613116,0.717828236216623,0.11478558860173),(1.28573066075038,0.717078155918698,0.143713935901984),(1.28107870373879,0.716567827096614,0.154860590160307),(1.27489617769705,0.715889591845405,0.169674673794085),(1.26739415772674,0.714245003662415,0.195704476023572),(1.26020680322173,0.712669396248322,0.220642481661943),(1.25328540499339,0.70822050933624,0.273660547797652),(1.25360306273341,0.703820819051986,0.316886376541815),(1.25879360020495,0.699547115825304,0.352584362586863),(1.26124049483542,0.697532430152583,0.369412910854061),(1.26881543375619,0.694037533656113,0.394216609390348),(1.27679782150193,0.690354649971133,0.420354475492732),(1.28067128938456,0.688885451989066,0.429843503653516),(1.28406749800332,0.687770815074378,0.436390384908747),(1.30499060955856,0.680903842185601,0.476723928050269),(1.30573512212951,0.680699434757791,0.477740751529419),(1.33414397035621,0.672899728185032,0.516540343396453),(1.3362555416256,0.672319992034618,0.519424237273345),(1.3424133504976,0.670761122510823,0.526404258209645),(1.36870821959322,0.664541393974368,0.551258012907988),(1.38046482515533,0.661760513231412,0.562370286928572),(1.40797590162883,0.655849133301012,0.581275323222828),(1.43185539598497,0.650800777856529,0.596642799520236),(1.42370107831832,0.652470221757007,0.592081335715092),(1.45117167455891,0.647012647700182,0.605229401430713),(1.4704153219562,0.643238761299408,0.613783716842637),(1.47931061934011,0.641494297729954,0.617737914190669),(1.52966408506714,0.632253655661894,0.63123646600929),(1.53974419155935,0.630471571309407,0.632946373872198),(1.49696334922424,0.638254747958589,0.622470186053997),(1.54377886148777,0.629783689765231,0.633248126410471),(1.59041136190494,0.621833191468043,0.636735766196751),(1.59141220488515,0.621662555102014,0.636810619137648),(1.63533929702197,0.61462635037643,0.633223815795118),(1.67739948776296,0.608262569953504,0.624242224082838),(1.64342108177604,0.61333181688214,0.632563909319196),(1.65332866015906,0.61180714953682,0.630817695553315),(1.70359083658072,0.604405730387928,0.61708748600077),(-4.92823260059491,-0.282422503438229,-2.),(-4.73010215882418,-0.632338633072744,2.),(-4.27908821545477,-0.390149260399822,2.),(-4.3919658884737,0.000192961511370993,-2.),(-4.21549261094855,-0.360890639715874,2.),(-3.74194438360973,-0.143023885136864,2.),(-3.83956074452294,0.249796736512287,-2.),(-2.69450633154258,0.646425178370544,-2.),(-2.5864328886984,0.260053779985728,2.),(-2.05375759878238,0.394026993083748,2.),(-2.10606460488791,0.791992420185628,-2.),(-0.908155414222076,0.974960451532721,-2.),(-0.871803274407918,0.576193058711156,2.),(-0.295632562139239,0.611730051839896,2.),(-0.303089709309782,1.01168891865243,-2.),(0.290966120937398,0.611730051839896,2.),(0.303089709309799,1.01168891865243,-2.),(0.0495022751448202,0.916655667624895,-1.00496280979001),(-8.88178419700125E-16,0.916779423570584,-1.00496280979001),(-0.0495022751448104,0.916655667624897,-1.00496280979001),(-0.290966120937398,0.611730051839896,2.),(-0.0482485582613039,0.665914380455137,1.502481404895),(-8.88178419700125E-16,0.666035002102085,1.502481404895),(0.0482485582613137,0.665914380455135,1.502481404895),(0.295632562139232,0.611730051839896,2.),(0.908155414222093,0.974960451532719,-2.),(0.871803274407917,0.576193058711157,2.),(2.69450633154259,0.646425178370538,-2.),(2.10606460488793,0.791992420185625,-2.),(2.05375759878237,0.394026993083749,2.),(2.02164731305435,0.400029445766711,2.),(4.39196588847372,0.000192961511364054,-2.),(3.83956074452295,0.249796736512281,-2.),(3.74194438360972,-0.143023885136863,2.),(3.68537242410409,-0.121107791266336,2.),(4.92823260059493,-0.282422503438237,-2.),(4.27908821545477,-0.390149260399819,2.),(4.21549261094855,-0.360890639715874,2.),(-1.50988407039236,0.901638477326666,-2.),(-1.54121037386069,0.698529191815875,-0.0414289850037011),(-1.50492948359308,0.703226740702868,-0.0317443662715651),(-1.55157011190402,0.697053381594841,-0.0431957009384032),(-1.5462661438968,0.697808965390915,-0.0422911795348402),(-1.60360158703383,0.688977632764837,-0.047211459666437),(-1.59060371487208,0.69099501840768,-0.0462082915177502),(-1.49028044547949,0.705123457464183,-0.0278340336453204),(-1.63659503192281,0.683157106895992,-0.044656433151018),(-1.65573210922051,0.679781046777378,-0.043174449681642),(-1.71666972049925,0.667567324208812,-0.0276702179613828),(-1.68316724989168,0.674362138533637,-0.0367877958186891),(-1.66664973812938,0.677712142980999,-0.0412829777193271),(-1.76413722742479,0.656838093069837,-0.00636709437647554),(-1.72901368687394,0.664777178338848,-0.0221303221834035),(-1.77455104297529,0.654322737722287,-0.000427877347506378),(-1.7729943196269,0.654698749029576,-0.00131570926418689),(-1.81687500121347,0.643395299797288,0.0294313288667762),(-1.81284522903526,0.644435729075696,0.0265883575693251),(-1.854295730735,0.632558399446977,0.065755492457416),(-1.84792362497866,0.634403736937347,0.0595701129934234),(-1.8924674960814,0.619733543159995,0.118595831535909),(-1.87721832666606,0.624954098757156,0.0966045336963766),(-1.86272916067184,0.629914467061103,0.075709260245949),(-1.91551102021024,0.610331432597464,0.165984923692483),(-1.90093143278012,0.616280127432839,0.136001948498765),(-1.9304511732765,0.602042010448724,0.217866142709334),(-1.92446541522636,0.605935289797935,0.191515992311917),(-1.91923175141327,0.608504746857366,0.176593596136336),(-1.94013262454149,0.592057142645065,0.296590488913588),(-1.93618796999658,0.598310661467719,0.243120330250399),(-2.02164731305435,0.40002944576671,2.),(-1.93577627404637,0.587255002085481,0.352300529718091),(-1.92359998470667,0.584366663747149,0.404682915125377),(-1.93023979806638,0.585941694279948,0.376118444231372),(-1.90374945162279,0.583204002956531,0.455017185382572),(-1.91828514922146,0.584055369798461,0.418159548954541),(-1.8992713116459,0.583179906266469,0.463983471717397),(-1.90087066001819,0.583188512295363,0.460781201237),(-1.87119635301959,0.584050164462492,0.509722753315363),(-1.87603610561239,0.583900143427142,0.501837904413071),(-1.83661397821312,0.586558452212106,0.550874602744623),(-1.84530125842761,0.585928356718045,0.54053703485528),(-1.78969032380666,0.591342569893475,0.591194190930544),(-1.80875042951141,0.589363839630675,0.575226392326468),(-1.83033636120717,0.587122890028461,0.557142557150591),(-1.74440375336238,0.596900056338637,0.618705644913045),(-1.76733218674597,0.594086320246724,0.604776691279881),(-1.68745591432886,0.604787945379332,0.641419579018523),(-1.72220153015737,0.599936058102516,0.628095892039405),(-1.73621770215896,0.597978836019021,0.622721197018417),(-1.63636532200558,0.612526910158634,0.652382713477822),(-1.67462900510485,0.606730905799203,0.644172006111758),(-1.47255988683538,0.502671674571673,2.),(-1.62601106456828,0.614162665944135,0.653606473126761),(-1.62632307828994,0.614113374311831,0.653569596527469),(-1.57429481173477,0.622654731755991,0.654851552139424),(-1.57865037587607,0.621939526471211,0.65474669107151),(-1.44940385508403,0.505539012693737,2.),(-1.53318526341628,0.629833789977084,0.649369440869809),(-1.52280653343082,0.631646252285093,0.647985398598736),(-1.47014807390413,0.641486634977693,0.631548302946059),(-1.49097964095841,0.637566745406174,0.638438644661372),(-1.51305812914054,0.633412221872036,0.645741423551502),(-0.885776250847704,0.575331235023913,2.),(-1.46392422638589,0.642657780428147,0.629489675475889),(-1.35088539754352,0.667030148366695,0.551650025886214),(-1.35495003896508,0.666085337663066,0.555287133868242),(-1.38991089035832,0.657958818450547,0.586570678582986),(-1.4176191841317,0.651995048818683,0.605653094738132),(-1.31736821609477,0.675783303294998,0.510819897074722),(-1.32665167128144,0.673358889367379,0.522128863243822),(-1.28477660756393,0.685967276775797,0.45337412998983),(-1.30150596868879,0.680612510794188,0.48418934146778),(-1.31008522173209,0.677866447032342,0.499992186231469),(-1.26664919716161,0.693433880887455,0.403049945005705),(-1.28059458831488,0.687689832917404,0.441764269252681),(-1.26368848464021,0.694973938503996,0.39161710739599),(-1.26473233816357,0.694430962933899,0.395647964068036),(-1.25508930230036,0.70141422293845,0.338844364686279),(-1.25635893243288,0.700463344255241,0.34663601994744),(-1.25449654453418,0.706918180752887,0.285022118874863),(-1.25462381830611,0.705736400417765,0.296578543149255),(-1.25535844119489,0.707897577730318,0.27420239503349),(-1.2643817076595,0.712043386649856,0.221460527923153),(-1.26002516654281,0.710041740451027,0.246924933029478),(-1.2812642054432,0.714976484668896,0.170408102760234),(-1.27180921531926,0.713333812289615,0.198999853927794),(-1.31085267997047,0.7167060766314,0.114076677066872),(-1.28918958732011,0.715586375674756,0.153910101443994),(-1.2853739298487,0.715389155666056,0.160926214322679),(-1.34315977296854,0.716593656282795,0.0714024210755952),(-1.33907551323018,0.716607868452969,0.0767972966102088),(-1.3118291737042,0.716702678685137,0.112786832029762),(-1.38902401218034,0.714521533244225,0.0279552176528575),(-1.36920427033855,0.715477744566477,0.0461974493389268),(-1.35001039343251,0.716403760786159,0.0638636304763303),(-1.43309270762593,0.711112498066217,-0.00177087197115866),(-1.43237307085487,0.71116816722191,-0.00128544831754818),(-1.48003689421317,0.706219269090038,-0.0233461333182823),(-1.44207890780516,0.710279853326751,-0.00671599644628018),(0.885776250847696,0.575331235023914,2.),(1.44940385508403,0.505539012693737,2.),(1.47255988683538,0.502671674571674,2.),(1.50988407039238,0.901638477326664,-2.),(-3.27304700070952,0.465471643788203,-2.),(-3.61336384448885,0.233833268146576,-1.00496380984089),(-3.38182339323108,0.321287019359935,-1.00496280979001),(-3.6853724241041,-0.121107791266336,2.),(-3.52186030880743,0.000383125303574816,1.50245985812343),(-3.19060607500474,0.0705657135158455,2.),(-3.29617381303038,0.0856243063376619,1.502481404895),(-3.15840913813619,0.134515573620316,1.502481404895),(-3.14168731592049,0.0861278910922705,2.),(-2.627164704692,0.249809317050644,2.),(-3.06842153433328,0.165181536483521,1.50245985812344),(-3.14816258259892,0.402906653913544,-1.00496380984089),(-3.24023335814583,0.370745578066571,-1.00496341578483),(3.27304700070953,0.465471643788196,-2.),(3.14816258259891,0.402906653913549,-1.0049638098409),(2.5864328886984,0.260053779985728,2.),(3.06842153433327,0.165181536483529,1.50245985812343),(3.14168731592049,0.0861278910922699,2.),(3.15840913813621,0.134515573620309,1.50248140489501),(2.62716470469199,0.249809317050645,2.),(3.19060607500473,0.0705657135158455,2.),(3.52186030880741,0.000383125303578369,1.50245985812344),(3.29617381303038,0.0856243063376674,1.50248140489501),(3.61336384448885,0.233833268146583,-1.0049638098409),(3.38182339323107,0.321287019359941,-1.00496280979001),(3.24023335814585,0.370745578066567,-1.00496341578483),(4.73010215882419,-0.632338633072744,2.),(4.8,-0.669872981077805,2.),(-5.,-0.323462819564031,-2.),(-4.8,-0.669872981077805,2.),(5.,-0.323462819564031,-2.),(-4.6,-1.01628314259158,-2.),(-4.6,-1.01628314259158,1.988),(4.6,-1.01628314259158,-2.),(4.6,-1.01628314259158,1.988),(0.601708788917318,0.196585236386737,-2.),(-2.95724308078909,-0.271959666053442,-2.),(-3.52068757775883,-0.484025158304575,-2.),(-2.38113521494319,-0.0971992555489865,-2.),(-1.79483096254838,0.0395077223013048,-2.),(-1.20084096842447,0.137575867230641,-2.),(-0.601708788917315,0.196585236386737,-2.),(2.66453525910038E-15,0.216283142591585,-2.),(1.20084096842448,0.137575867230641,-2.),(2.38113521494319,-0.0971992555489879,-2.),(2.95724308078909,-0.271959666053444,-2.),(1.79483096254838,0.0395077223013048,-2.),(4.06905595001481,-0.732487635307685,-2.),(3.52068757775883,-0.484025158304578,-2.),(-4.06905595001481,-0.732487635307681,-2.),(4.10079287314415,-0.748214576941841,1.988),(4.06862854168896,-0.733416636409522,1.988),(3.58603003429265,-0.511386092314841,1.988),(3.51999800597553,-0.485805148262246,1.988),(3.05766415521287,-0.306696060272661,1.988),(2.95643704277221,-0.27449339755513,1.988),(2.51769950866316,-0.134920940218479,1.988),(2.38033701478245,-0.100372886248758,1.988),(1.96818436549978,0.00328766597991215,1.988),(1.79414195021415,0.0358218318677144,1.988),(1.4112032248839,0.107405485739173,1.988),(1.20033827577497,0.133516224991895,1.988),(0.848868907062376,0.177037564505904,1.988),(0.601444372787845,0.192298187420549,1.988),(0.283314538716764,0.211919763954553,1.988),(-0.283314538716771,0.211919763954553,1.988),(2.66453525910038E-15,0.211919763954552,1.988),(-0.848868907062383,0.177037564505904,1.988),(-0.601444372787842,0.19229818742055,1.988),(-1.41120322488391,0.107405485739172,1.988),(-1.20033827577497,0.133516224991895,1.988),(-1.96818436549978,0.00328766597991215,1.988),(-1.79414195021415,0.0358218318677158,1.988),(-2.51769950866317,-0.13492094021848,1.988),(-2.38033701478245,-0.100372886248757,1.988),(-3.05766415521288,-0.306696060272662,1.988),(-2.95643704277221,-0.274493397555129,1.988),(-3.58603003429266,-0.511386092314843,1.988),(-3.51999800597553,-0.485805148262243,1.988),(-4.10079287314416,-0.748214576941842,1.988),(-4.06862854168896,-0.733416636409518,1.988),(3.49672734431104,-0.00901560385135036,1.48059058671039),(3.2900558650885,0.0687909230714205,1.48059058671038),(3.58678766796517,0.220727723728597,-0.987052106322723),(3.37434590130211,0.30071288425675,-0.987052140366238),(3.16012236441764,0.375795547850575,-0.987052106322724),(3.08165492677582,0.141838885850704,1.48059058671039),(-8.88178419700125E-16,0.817275704549583,-1.01491318169211),(0.049004758622706,0.817153192397793,-1.01491318169211),(0.0477510417391995,0.566411905228033,1.4925310329929),(-8.88178419700125E-16,0.566531283081084,1.4925310329929),(-0.0490047586226963,0.817153192397793,-1.01491318169211),(-0.0477510417391898,0.566411905228033,1.4925310329929),(-3.29005586508851,0.0687909230714134,1.48059058671039),(-3.08165492677583,0.1418388858507,1.48059058671039),(-3.16012236441765,0.375795547850567,-0.987052106322722),(-3.37434590130212,0.300712884256743,-0.987052140366237),(-3.58678766796517,0.220727723728588,-0.987052106322722),(-3.49672734431103,-0.0090156038513573,1.48059058671039),(-1.44779867922943,0.360195428536714,0.380690750221217),(-1.41227074193535,0.36976254845781,0.353279873752486),(-1.3967518178682,0.374833162300761,0.33465953427041),(-1.40973576531048,0.370445178163175,0.351324062737054),(-1.38107251454651,0.380132054226339,0.314535592941839),(-1.37012618273832,0.38518901582634,0.290365275404096),(-1.380155847182,0.3804418461346,0.313359076365646),(-1.36016755057132,0.390247423548478,0.264963373107362),(-1.36084573316263,0.389581572446634,0.269089108930608),(-1.35560489279302,0.394727117878517,0.237206363584604),(-1.35397945964928,0.398773148010553,0.209051925478875),(-1.35297187247017,0.397312261622427,0.221188337748276),(-1.35634459415462,0.402202323050229,0.180563822390424),(-1.36350158008243,0.404665235960586,0.15335651985663),(-1.35700989454089,0.40316693266264,0.172550262930635),(-1.37271587809702,0.406791927559429,0.126112922247386),(-1.37241340927948,0.406722116718478,0.127007221383506),(-1.38675324875769,0.407416816381901,0.104104034797779),(-1.3991410854866,0.407968274407313,0.0846814156405715),(-1.40129704242862,0.407886801171628,0.0826240271106302),(-1.43468927225147,0.40662491464811,0.0507584599986126),(-1.41929832571804,0.407206535825185,0.0654457463008606),(-1.45595119116286,0.4047339550457,0.0385758348591976),(-1.47721311007424,0.402842995443289,0.0263932097197821),(-1.49753226900199,0.400248686587597,0.020619368767441),(-1.52129759982596,0.397214377518296,0.0138662723009348),(-1.54688147463346,0.393175580320438,0.0123539835340871),(-1.52414389856732,0.396850967888158,0.0130574752294681),(-1.57355465802832,0.38883332797144,0.0117575845189428),(-1.57264673051713,0.389010787165772,0.0115568166113333),(-1.60030549789632,0.38360473600551,0.0176729357786818),(-1.61979173765196,0.379796048235881,0.0219818828418359),(-1.62686637856603,0.378143075715817,0.025560621349848),(-1.65201663803378,0.372266779197367,0.0382829917340017),(-1.67481624912057,0.366337592833211,0.0543050784000214),(-1.66273107263952,0.369763377797009,0.0437029360365999),(-1.69575817805091,0.36040118426235,0.0726771156004906),(-1.71192275854978,0.354790841522535,0.0945231421328181),(-1.69887093651738,0.359518810623283,0.0754078914775471),(-1.7265406504562,0.349407344398976,0.116589734200625),(-1.72602826004473,0.349681181349946,0.115181575570304),(-1.73530492525385,0.344723450566606,0.140675839089684),(-1.74288974731843,0.340358467595017,0.163842249456426),(-1.74256257446235,0.34084474306941,0.160621414065316),(-1.74747510585829,0.333543270802897,0.208982562265338),(-1.74124227759346,0.328516473838699,0.25416156434424),(-1.73246932960408,0.326858328007189,0.277366603214412),(-1.74116701279322,0.328455772524099,0.254707125431757),(-1.72236739817315,0.325334545527321,0.301212585336451),(-1.72456213872796,0.325406067855317,0.29796666556251),(-1.707192831056,0.324840035885095,0.323655068279789),(-1.68945539216645,0.324933321986795,0.344883213736348),(-1.69855565672138,0.324558567164631,0.336429049651833),(-1.66858985513318,0.325792578393361,0.364267339629185),(-1.64446338830144,0.327745354293151,0.37952972088152),(-1.66454958294997,0.325958959433645,0.368020760617854),(-1.6243771936529,0.329531749152657,0.391038681145186),(-1.61912898569878,0.330191452567904,0.392607360767453),(-1.59202519851328,0.333598417598392,0.400708632480734),(-1.56499584915688,0.337486530751179,0.405130899960511),(-1.58020419273541,0.335084326303133,0.404241909180234),(-1.53827645906095,0.341706940252454,0.406692759168074),(-1.53441195811072,0.34231735001366,0.406918655282098),(-1.51301033387306,0.346376232155092,0.403111917624006),(-1.48897197104861,0.350952499512213,0.398707058626769),(-1.48946916100031,0.350840886103806,0.398924615375579)),$);
#133=IFCTRIANGULATEDFACESET(#132,$,$,((1,2,3),(3,4,1),(2,5,6),(2,7,3),(8,9,10),(11,12,8),(2,13,5),(1,13,2),(14,15,16),(17,18,19),(8,20,11),(1,21,13),(14,22,15),(19,23,17),(17,24,25),(17,26,27),(28,29,30),(11,31,12),(20,28,32),(33,34,35),(33,36,37),(22,14,38),(16,2,14),(25,18,17),(27,39,17),(17,40,41),(30,42,28),(28,43,44),(28,20,45),(32,11,20),(33,46,47),(35,48,33),(33,49,36),(33,50,51),(6,14,2),(17,52,53),(39,24,17),(41,54,17),(28,55,56),(44,29,28),(10,20,8),(47,57,33),(33,58,59),(37,34,33),(33,60,50),(53,22,17),(54,26,17),(42,55,28),(45,61,28),(59,46,33),(51,49,33),(62,63,64),(23,52,17),(17,62,65),(61,43,28),(48,58,33),(62,17,63),(65,40,17),(60,33,66),(57,28,33),(38,17,22),(56,33,28),(66,62,60),(64,60,62),(4,67,68),(4,69,67),(70,71,21),(1,68,70),(71,13,21),(13,72,73),(13,71,74),(74,72,13),(75,6,5),(6,75,76),(76,14,6),(77,38,14),(77,17,38),(78,63,17),(17,77,79),(79,80,17),(63,81,82),(63,78,81),(82,60,64),(60,83,84),(60,82,85),(85,83,60),(50,86,87),(50,84,86),(87,49,51),(49,88,89),(49,87,88),(90,37,36),(36,89,91),(90,34,37),(92,35,34),(34,90,93),(92,48,35),(48,94,95),(48,96,94),(48,92,96),(97,98,59),(58,95,97),(98,46,59),(99,100,47),(46,101,99),(46,98,101),(47,100,102),(102,57,47),(103,28,57),(104,105,32),(28,103,104),(106,11,32),(32,105,106),(107,12,31),(31,106,108),(31,108,107),(31,11,106),(109,8,12),(12,107,109),(109,110,8),(111,10,9),(9,112,111),(111,113,10),(20,114,115),(10,113,114),(114,20,10),(116,117,61),(45,118,116),(61,45,116),(43,61,117),(117,119,43),(29,44,120),(120,121,29),(121,122,29),(122,123,29),(124,42,30),(30,123,124),(124,125,42),(55,42,125),(125,126,55),(33,56,127),(127,128,33),(128,129,33),(66,33,129),(129,130,66),(130,131,66),(56,55,127),(126,127,55),(30,29,123),(44,43,120),(119,120,43),(45,20,118),(115,118,20),(9,8,112),(110,112,8),(32,28,104),(57,102,103),(47,46,99),(59,58,97),(95,58,48),(34,93,92),(36,91,90),(89,36,49),(87,51,50),(84,50,60),(82,64,63),(17,80,78),(14,76,77),(5,73,75),(73,5,13),(21,1,70),(68,1,4),(62,66,131),(131,132,62),(40,65,133),(133,134,40),(134,135,40),(54,136,137),(54,41,135),(135,136,54),(137,138,54),(138,139,26),(26,54,138),(140,141,39),(39,27,140),(24,142,143),(24,39,141),(141,142,24),(18,25,144),(144,145,18),(145,146,18),(19,18,146),(147,23,19),(19,148,147),(147,149,23),(52,150,151),(52,23,149),(149,150,52),(22,152,153),(152,22,53),(53,154,152),(153,155,22),(155,156,15),(156,157,16),(158,2,16),(16,157,158),(159,3,7),(7,158,160),(160,161,7),(7,161,159),(7,2,158),(3,162,69),(3,159,162),(69,4,3),(16,15,156),(15,22,155),(53,52,154),(151,154,52),(146,148,19),(25,24,144),(143,144,24),(27,26,140),(139,140,26),(41,40,135),(65,62,133),(132,133,62),(163,164,165),(165,166,163),(166,167,168),(168,169,166),(170,171,172),(172,173,170),(174,175,176),(176,177,174),(178,179,180),(179,177,181),(177,182,181),(181,180,179),(183,184,182),(183,178,185),(178,186,185),(185,184,183),(182,177,183),(179,178,187),(187,188,179),(187,189,188),(190,191,192),(191,193,192),(194,195,196),(195,197,196),(198,194,199),(194,200,199),(201,202,203),(201,204,205),(201,206,207),(207,204,201),(205,202,201),(203,208,201),(201,173,209),(173,210,209),(173,211,212),(212,213,173),(213,210,173),(173,214,215),(173,216,217),(173,218,219),(219,216,173),(217,214,173),(173,220,221),(173,222,223),(223,224,173),(224,220,173),(173,225,226),(173,227,228),(228,229,173),(229,225,173),(173,230,231),(231,227,173),(226,222,173),(221,218,173),(215,211,173),(209,206,201),(232,233,230),(232,234,235),(232,236,237),(232,238,239),(232,240,241),(241,238,232),(239,236,232),(237,234,232),(232,242,243),(232,244,245),(245,246,232),(246,242,232),(243,240,232),(232,247,248),(232,249,250),(250,251,232),(251,247,232),(248,244,232),(235,233,232),(230,173,232),(232,252,253),(232,254,255),(255,256,232),(254,257,258),(258,255,254),(256,252,232),(253,249,232),(259,260,257),(259,261,260),(259,262,263),(263,264,259),(264,261,259),(257,254,259),(265,266,262),(262,259,265),(175,267,268),(268,269,175),(269,270,175),(175,271,272),(175,273,274),(274,275,175),(275,271,175),(175,276,277),(175,278,279),(175,280,281),(281,278,175),(279,276,175),(277,273,175),(175,282,283),(174,284,282),(174,285,286),(286,284,174),(282,175,174),(283,280,175),(174,287,288),(174,289,290),(290,291,174),(291,287,174),(288,285,174),(272,267,175),(174,292,293),(293,294,174),(294,289,174),(174,295,296),(296,297,174),(297,292,174),(174,298,299),(174,201,300),(300,301,174),(301,298,174),(299,295,174),(270,266,175),(188,115,114),(188,116,118),(188,119,117),(117,116,188),(118,115,188),(188,121,120),(188,124,123),(123,122,188),(122,121,188),(188,126,125),(188,128,127),(188,130,129),(129,128,188),(127,126,188),(189,132,131),(189,134,133),(133,132,189),(131,188,189),(189,136,135),(189,139,138),(138,137,189),(137,136,189),(135,134,189),(189,142,141),(141,140,189),(140,139,189),(189,145,144),(144,143,189),(143,142,189),(131,130,188),(125,124,188),(189,148,146),(302,303,150),(150,149,302),(147,189,302),(149,147,302),(147,148,189),(146,145,189),(120,119,188),(303,152,154),(156,303,304),(304,157,156),(156,155,303),(155,153,303),(153,152,303),(154,151,303),(304,193,160),(160,158,304),(193,162,159),(159,161,193),(161,160,193),(193,70,68),(68,67,193),(67,69,193),(193,74,71),(193,75,73),(73,72,193),(72,74,193),(193,79,77),(77,76,193),(76,75,193),(193,81,78),(78,80,193),(80,79,193),(193,85,82),(191,86,84),(84,83,191),(83,193,191),(83,85,193),(82,81,193),(71,70,193),(191,88,87),(191,91,89),(191,93,90),(90,91,191),(89,88,191),(87,86,191),(191,96,92),(191,97,95),(95,94,191),(94,96,191),(92,93,191),(191,101,98),(191,100,99),(99,101,191),(98,97,191),(191,104,103),(103,102,191),(191,305,108),(108,106,191),(106,105,191),(105,104,191),(102,100,191),(305,109,107),(305,111,112),(112,110,305),(110,109,305),(107,108,305),(305,114,113),(113,111,305),(69,162,193),(158,157,304),(306,169,307),(307,308,306),(309,310,307),(311,312,310),(311,313,312),(310,309,311),(311,314,313),(307,169,309),(314,315,316),(316,313,314),(171,170,317),(317,316,171),(306,318,317),(317,170,306),(319,190,320),(321,322,320),(323,324,322),(322,321,325),(322,325,323),(320,190,321),(326,197,327),(327,328,326),(324,323,326),(197,195,329),(329,327,197),(319,330,329),(319,331,330),(329,195,319),(198,332,333),(334,335,164),(164,163,334),(333,336,198),(328,324,326),(320,331,319),(315,171,316),(308,318,306),(151,150,303),(114,305,188),(265,175,266),(208,300,201),(199,332,198),(196,200,194),(192,321,190),(180,186,178),(176,183,177),(172,232,173),(168,309,169),(165,167,166),(337,338,335),(335,334,337),(339,336,333),(333,340,339),(179,188,341),(306,342,343),(170,344,342),(173,345,344),(201,346,345),(174,347,346),(177,348,347),(348,177,179),(188,305,349),(342,306,170),(345,173,201),(347,174,177),(349,341,188),(191,190,350),(190,319,351),(344,170,173),(341,348,179),(305,191,352),(351,350,190),(198,339,353),(346,201,174),(350,352,191),(194,353,354),(353,194,198),(166,169,343),(352,349,305),(319,195,354),(198,336,339),(163,166,355),(343,169,306),(354,195,194),(337,334,163),(354,351,319),(343,355,166),(355,337,163),(339,340,356),(356,353,339),(353,357,358),(358,354,353),(354,359,360),(360,351,354),(351,361,362),(362,350,351),(350,363,364),(364,352,350),(352,365,366),(366,349,352),(349,367,368),(368,341,349),(341,369,370),(370,348,341),(347,348,371),(348,372,371),(346,347,373),(347,374,373),(345,346,375),(346,376,375),(344,345,377),(345,378,377),(342,344,379),(344,380,379),(343,342,381),(342,382,381),(355,343,383),(343,384,383),(337,355,385),(355,386,385),(385,338,337),(383,386,355),(381,384,343),(379,382,342),(377,380,344),(375,378,345),(373,376,346),(371,374,347),(370,372,348),(368,369,341),(366,367,349),(364,365,352),(362,363,350),(360,361,351),(358,359,354),(356,357,353),(356,340,332),(340,333,332),(358,357,200),(199,200,357),(357,356,199),(326,360,359),(358,196,197),(197,359,358),(325,362,361),(361,323,325),(360,326,323),(192,364,363),(363,321,192),(362,325,321),(304,366,365),(365,193,304),(364,192,193),(302,368,367),(367,303,302),(366,304,303),(187,370,369),(369,189,187),(368,302,189),(183,371,372),(372,178,183),(370,187,178),(372,370,178),(176,175,374),(175,373,374),(374,371,176),(265,259,376),(259,375,376),(376,373,265),(254,232,378),(232,377,378),(378,375,254),(172,171,380),(171,379,380),(380,377,172),(315,314,382),(314,381,382),(382,379,315),(383,384,309),(311,309,384),(384,381,311),(165,385,386),(383,168,167),(167,386,383),(385,165,164),(164,338,385),(164,335,338),(386,167,165),(309,168,383),(314,311,381),(171,315,379),(232,172,377),(259,254,375),(175,265,373),(183,176,371),(369,368,189),(367,366,303),(365,364,193),(363,362,321),(361,360,323),(359,197,326),(200,196,358),(332,199,356),(328,327,387),(387,388,328),(327,329,389),(389,387,327),(330,390,389),(389,329,330),(390,388,387),(387,389,390),(390,391,392),(392,388,390),(388,392,324),(392,322,324),(324,328,388),(322,392,391),(391,320,322),(390,330,331),(331,391,390),(331,320,391),(180,181,393),(393,394,180),(186,395,396),(396,185,186),(394,395,186),(186,180,394),(181,182,397),(397,393,181),(182,184,398),(398,397,182),(185,396,398),(398,184,185),(393,396,395),(395,394,393),(397,398,396),(396,393,397),(399,312,313),(313,400,399),(313,316,400),(316,317,401),(401,400,316),(402,401,318),(401,317,318),(318,308,402),(402,399,400),(400,401,402),(402,403,404),(404,399,402),(312,399,404),(404,310,312),(310,404,403),(403,307,310),(308,307,403),(403,402,308),(405,269,268),(405,270,269),(406,267,272),(406,268,267),(272,407,408),(407,275,274),(407,272,271),(271,275,407),(409,273,277),(409,274,273),(277,410,411),(410,276,279),(410,277,276),(279,412,413),(281,414,412),(412,279,278),(414,280,283),(414,281,280),(283,415,416),(415,284,286),(415,283,282),(282,284,415),(417,285,288),(417,286,285),(288,418,419),(418,291,290),(418,287,291),(418,288,287),(289,420,421),(420,289,294),(294,422,420),(293,423,422),(293,424,423),(424,297,296),(424,292,297),(424,293,292),(295,299,425),(426,296,295),(299,427,425),(300,428,427),(427,298,301),(427,299,298),(427,301,300),(428,208,203),(203,429,428),(202,430,429),(429,203,202),(430,205,204),(207,431,432),(432,204,207),(209,433,434),(434,207,206),(434,206,209),(434,431,207),(210,435,433),(433,209,210),(210,213,435),(212,211,436),(211,215,437),(437,436,211),(215,214,438),(438,437,215),(439,440,217),(217,216,439),(216,219,439),(441,439,219),(219,218,441),(442,443,221),(221,220,442),(220,224,442),(224,223,442),(444,445,223),(223,222,444),(222,226,444),(446,444,226),(226,225,446),(447,448,229),(229,228,447),(228,227,447),(449,447,227),(227,231,449),(231,230,449),(448,446,229),(225,229,446),(445,442,223),(443,441,221),(218,221,441),(440,438,217),(214,217,438),(436,435,212),(213,212,435),(204,432,430),(202,205,430),(300,208,428),(425,426,295),(296,426,424),(422,294,293),(421,290,289),(290,421,418),(288,419,417),(286,417,415),(283,416,414),(412,278,281),(279,413,410),(277,411,409),(274,409,407),(272,408,406),(268,406,405),(450,449,230),(230,233,450),(451,452,235),(235,234,451),(234,237,451),(453,454,237),(237,236,453),(236,239,453),(455,453,239),(239,238,455),(456,457,241),(241,240,456),(240,243,456),(458,242,246),(458,456,243),(243,242,458),(459,460,245),(245,244,459),(244,248,459),(461,459,248),(462,461,247),(247,251,462),(251,250,462),(463,462,250),(250,249,463),(252,464,465),(465,253,252),(252,256,464),(255,258,466),(464,256,255),(258,257,467),(260,468,467),(467,257,260),(263,469,470),(470,260,261),(261,264,470),(470,264,263),(470,468,260),(469,266,270),(469,262,266),(469,263,262),(270,405,469),(467,466,258),(466,464,255),(465,463,253),(249,253,463),(248,247,461),(460,458,245),(246,245,458),(457,455,241),(238,241,455),(454,451,237),(452,450,235),(233,235,450),(459,462,463),(438,417,419),(438,414,416),(459,464,466),(463,464,459),(435,436,437),(431,433,435),(438,427,428),(438,426,425),(438,422,423),(438,415,417),(438,412,414),(466,468,459),(459,461,462),(469,455,457),(435,438,431),(425,427,438),(423,424,438),(438,421,420),(416,415,438),(438,410,413),(438,409,411),(438,406,408),(438,469,405),(459,468,470),(463,465,464),(457,456,469),(469,451,454),(469,450,452),(469,446,448),(469,442,445),(469,441,443),(469,438,440),(431,434,433),(438,430,432),(428,429,438),(420,422,438),(413,412,438),(438,407,409),(405,406,438),(466,467,468),(469,458,460),(469,453,455),(452,451,469),(469,447,449),(469,444,446),(443,442,469),(440,439,469),(432,431,438),(424,426,438),(419,418,438),(408,407,438),(460,459,469),(454,453,469),(448,447,469),(439,441,469),(429,430,438),(411,410,438),(456,458,469),(445,444,469),(418,421,438),(449,450,469),(470,469,459),(437,438,435)),$);
#134=IFCSTYLEDITEM(#133,(#51),$);
#135=IFCAXIS2PLACEMENT3D(#7,#9,#10);
#136=IFCSHAPEREPRESENTATION(#55,'Body','Tessellation',(#133));
#137=IFCREPRESENTATIONMAP(#135,#136);
#138=IFCCARTESIANTRANSFORMATIONOPERATOR3DNONUNIFORM($,$,#7,$,$,$,$);
#139=IFCMAPPEDITEM(#137,#138);
#140=IFCPRODUCTDEFINITIONSHAPE($,$,(#141));
#141=IFCSHAPEREPRESENTATION(#55,'Body','MappedRepresentation',(#139));
#142=IFCCARTESIANPOINT((0.,-0.64134665205,-0.394));
#143=IFCAXIS2PLACEMENT3D(#142,#9,#10);
#144=IFCLOCALPLACEMENT(#29,#143);
#145=IFCPAVEMENT('1N5hwjg1p3HgXvuVyh2OUu',#6,'Smart Surface','[Generic].[PhysicalObject]','<null>',#173,#169,'91',$);
#146=IFCPROPERTYSINGLEVALUE('In Spatial Index',$,IFCBOOLEAN(.T.),$);
#147=IFCPROPERTYSINGLEVALUE('Last Modified',$,IFCDATETIME('2026-06-02T16:13:47.705Z'),$);
#148=IFCPROPERTYSINGLEVALUE('Federation GUID',$,IFCTEXT('adbe1657-1ca8-46c3-a879-e1ff2b0987b8'),$);
#149=IFCPROPERTYSINGLEVALUE('User Label',$,IFCTEXT('Smart Surface'),$);
#150=IFCPROPERTYSINGLEVALUE('Origin',$,IFCTEXT('-4.999999999054126e-05,2.5955040378443832,1.3249499999999996'),$);
#151=IFCPROPERTYSINGLEVALUE('Yaw',$,IFCREAL(0.),$);
#152=IFCPROPERTYSINGLEVALUE('Pitch',$,IFCREAL(0.),$);
#153=IFCPROPERTYSINGLEVALUE('Roll',$,IFCREAL(0.),$);
#154=IFCPROPERTYSINGLEVALUE('Bounding Box Low',$,IFCTEXT('-7.4599500000000356,-3.1645320323027555,-0.024950000000000319'),$);
#155=IFCPROPERTYSINGLEVALUE('Bounding Box High',$,IFCTEXT('7.4600499999999768,3.164495962155625,0.025049999999998511'),$);
#156=IFCPROPERTYSET('0xy2CkA1r88e$o4uTlabVK',#6,'[Generic].[PhysicalObject]',$,(#146,#147,#148,#149,#150,#151,#152,#153,#154,#155));
#157=IFCRELDEFINESBYPROPERTIES('0gwv7DoGPAO9g97G4ErZGB',#6,$,$,(#145),#156);
#158=IFCCARTESIANPOINTLIST3D(((7.46,1.16561302169303,0.0249999999999988),(4.96000000000002,-3.16451399722916,-0.0249999999999995),(4.52560972094339,-2.92795765936103,-0.0249999999999995),(6.80666300770919,1.52140138469632,0.0249999999999988),(4.07996806305568,-2.713347947839,-0.0249999999999995),(6.13640357870872,1.84418131371937,0.0249999999999988),(3.62418296171465,-2.52121841622029,-0.0249999999999995),(5.45088808354661,2.13315032700073,0.0249999999999988),(3.15938757049672,-2.35204672879285,-0.0249999999999995),(4.75182082175513,2.38759000204281,0.0249999999999988),(2.68673744397862,-2.20625347302668,-0.0249999999999995),(4.04093978469363,2.60686776172338,0.0249999999999988),(2.20740766484665,-2.08420111392711,-0.0249999999999995),(3.3200123346282,2.79043844698201,0.0249999999999988),(1.72258992245596,-1.9861930928897,-0.0249999999999995),(2.59083081079059,2.93784567217134,0.0249999999999988),(1.23348955010306,-1.9124730732971,-0.0249999999999995),(1.85520807334047,3.04872295970376,0.0249999999999988),(0.741322528377335,-1.8632243347335,-0.0249999999999995),(1.11497299630944,3.1227946511724,0.0249999999999988),(0.247312462041688,-1.83856931732271,-0.0249999999999995),(0.37196592073204,3.15987659268137,0.0249999999999988),(-0.247312462041676,-1.83856931732271,-0.0249999999999995),(-0.371965920732054,3.15987659268137,0.0249999999999988),(-0.741322528377322,-1.8632243347335,-0.0249999999999995),(-1.11497299630946,3.12279465117239,0.0249999999999988),(-1.23348955010305,-1.91247307329711,-0.0249999999999995),(-1.85520807334049,3.04872295970375,0.0249999999999988),(-1.72258992245594,-1.98619309288971,-0.0249999999999995),(-2.59083081079061,2.93784567217132,0.0249999999999988),(-2.20740766484663,-2.08420111392713,-0.0249999999999995),(-3.32001233462822,2.79043844698199,0.0249999999999988),(-2.68673744397861,-2.2062534730267,-0.0249999999999995),(-4.04093978469364,2.60686776172335,0.0249999999999988),(-3.1593875704967,-2.35204672879287,-0.0249999999999995),(-4.75182082175514,2.38759000204278,0.0249999999999988),(-3.62418296171463,-2.52121841622032,-0.0249999999999995),(-5.45088808354662,2.1331503270007,0.0249999999999988),(-4.07996806305566,-2.71334794783902,-0.0249999999999995),(-6.13640357870873,1.84418131371933,0.0249999999999988),(-4.52560972094337,-2.92795765936105,-0.0249999999999995),(-6.8066630077092,1.52140138469628,0.0249999999999988),(-4.95999999999999,-3.16451399722919,-0.0249999999999995),(-7.46,1.16561302169299,0.0249999999999988)),$);
#159=IFCTRIANGULATEDFACESET(#158,$,$,((1,2,3),(4,3,5),(6,5,7),(8,7,9),(10,9,11),(12,11,13),(14,13,15),(16,15,17),(18,17,19),(20,19,21),(22,21,23),(24,23,25),(26,25,27),(28,27,29),(30,29,31),(32,31,33),(34,33,35),(36,35,37),(38,37,39),(40,39,41),(42,41,43),(43,44,42),(41,42,40),(39,40,38),(37,38,36),(35,36,34),(33,34,32),(31,32,30),(29,30,28),(27,28,26),(25,26,24),(23,24,22),(21,22,20),(19,20,18),(17,18,16),(15,16,14),(13,14,12),(11,12,10),(9,10,8),(7,8,6),(5,6,4),(3,4,1)),$);
#160=IFCCOLOURRGB($,0.92156862745098,0.588235294117647,0.470588235294118);
#161=IFCSURFACESTYLERENDERING(#160,$,$,$,$,$,$,$,.NOTDEFINED.);
#162=IFCSURFACESTYLE($,.BOTH.,(#161));
#163=IFCSTYLEDITEM(#159,(#162),$);
#164=IFCAXIS2PLACEMENT3D(#7,#9,#10);
#165=IFCSHAPEREPRESENTATION(#55,'Body','Tessellation',(#159));
#166=IFCREPRESENTATIONMAP(#164,#165);
#167=IFCCARTESIANTRANSFORMATIONOPERATOR3DNONUNIFORM($,$,#7,$,$,$,$);
#168=IFCMAPPEDITEM(#166,#167);
#169=IFCPRODUCTDEFINITIONSHAPE($,$,(#170));
#170=IFCSHAPEREPRESENTATION(#55,'Body','MappedRepresentation',(#168));
#171=IFCCARTESIANPOINT((0.,2.13042249331,-1.569));
#172=IFCAXIS2PLACEMENT3D(#171,#9,#10);
#173=IFCLOCALPLACEMENT(#29,#172);
#174=IFCGEOGRAPHICELEMENT('1Z7vCe_XVgIQmRgXXVKhjr',#6,'Smart Surface','[Generic].[PhysicalObject]','<null>',#202,#198,'92',.TERRAIN.);
#175=IFCPROPERTYSINGLEVALUE('In Spatial Index',$,IFCBOOLEAN(.T.),$);
#176=IFCPROPERTYSINGLEVALUE('Last Modified',$,IFCDATETIME('2026-06-02T16:13:47.706Z'),$);
#177=IFCPROPERTYSINGLEVALUE('Federation GUID',$,IFCTEXT('28931f63-17fa-49ea-ac1b-aa185f52bb75'),$);
#178=IFCPROPERTYSINGLEVALUE('User Label',$,IFCTEXT('Smart Surface'),$);
#179=IFCPROPERTYSINGLEVALUE('Origin',$,IFCTEXT('-4.999999999054126e-05,-2.0918459621556171,4.7879499999999995'),$);
#180=IFCPROPERTYSINGLEVALUE('Yaw',$,IFCREAL(0.),$);
#181=IFCPROPERTYSINGLEVALUE('Pitch',$,IFCREAL(0.),$);
#182=IFCPROPERTYSINGLEVALUE('Roll',$,IFCREAL(0.),$);
#183=IFCPROPERTYSINGLEVALUE('Bounding Box Low',$,IFCTEXT('-4.5999500000000078,-2.1318092362747532,-0.99995000000000289'),$);
#184=IFCPROPERTYSINGLEVALUE('Bounding Box High',$,IFCTEXT('4.6000500000000004,2.1318459621556234,1.0000499999999981'),$);
#185=IFCPROPERTYSET('2zO_BDtPPAtewypI8nvI_6',#6,'[Generic].[PhysicalObject]',$,(#175,#176,#177,#178,#179,#180,#181,#182,#183,#184));
#186=IFCRELDEFINESBYPROPERTIES('3De0mzTQD39RJBZ1rb6lp2',#6,$,$,(#174),#185);
#187=IFCCARTESIANPOINTLIST3D(((-4.34999999999992,0.466248612139844,-1.),(-2.84999999999882,-2.13182759921283,1.),(-2.52104553424709,-1.95599777404789,1.),(-3.84791160490345,0.734620450550491,-0.999999999999999),(-2.18129556447975,-1.80205906546996,1.),(-3.32934586157436,0.969579532064174,-0.999999999999999),(-1.83220495222673,-1.67067066266227,1.),(-2.79652334813554,1.17011972582327,-0.999999999999999),(-1.47526855708305,-1.56239519093677,1.),(-2.25172569238992,1.33538228793062,-0.999999999999999),(-1.11201483549059,-1.47769630248613,1.),(-1.69728580153828,1.46465953872369,-0.999999999999999),(-0.743999295652943,-1.41693669095392,1.),(-1.13557787231239,1.55739789316761,-0.999999999999999),(-0.372797836610455,-1.38037653832468,1.),(-0.569007224300171,1.61320023139117,-0.999999999999999),(1.36376503758482E-12,-1.36817240078481,1.),(2.07834292310916E-12,1.63182759921518,-0.999999999999999),(0.372797836613177,-1.38037653832486,1.),(0.569007224304318,1.6132002313909,-0.999999999999999),(0.743999295655647,-1.41693669095427,1.),(1.13557787231651,1.55739789316706,-0.999999999999999),(1.11201483549327,-1.47769630248666,1.),(1.69728580154235,1.46465953872289,-0.999999999999999),(1.47526855708569,-1.56239519093747,1.),(2.25172569239394,1.33538228792954,-0.999999999999999),(1.83220495222931,-1.67067066266315,1.),(2.79652334813947,1.17011972582194,-0.999999999999999),(2.18129556448227,-1.802059065471,1.),(3.3293458615782,0.969579532062588,-0.999999999999999),(2.52104553424953,-1.95599777404909,1.),(3.84791160490718,0.734620450548657,-0.999999999999999),(2.85000000000119,-2.1318275992142,1.),(4.35000000000008,0.466248612139758,-1.),(4.6,0.899261314032027,-1.),(4.06905595001481,1.18305682131592,-1.),(3.52068757775883,1.43151929831902,-1.),(2.95724308078909,1.64358479057016,-1.),(2.38113521494319,1.81834520107462,-1.),(-0.601708788917316,2.11212969301034,-1.),(-1.20084096842448,2.05312032385424,-1.),(-1.79483096254838,1.95505217892491,-1.),(1.79483096254838,1.95505217892491,-1.),(1.20084096842448,2.05312032385424,-1.),(0.601708788917317,2.11212969301034,-1.),(-2.38113521494319,1.81834520107461,-1.),(-1.77951457822761E-16,2.13182759921519,-1.),(-2.95724308078909,1.64358479057016,-1.),(-3.52068757775883,1.43151929831902,-1.),(-4.06905595001481,1.18305682131592,-1.),(-4.6,0.89926131403202,-1.)),$);
#188=IFCTRIANGULATEDFACESET(#187,$,$,((1,2,3),(4,3,5),(6,5,7),(8,7,9),(10,9,11),(12,11,13),(14,13,15),(16,15,17),(18,17,19),(20,19,21),(22,21,23),(24,23,25),(26,25,27),(28,27,29),(30,29,31),(32,31,33),(33,34,32),(31,32,30),(29,30,28),(27,28,26),(25,26,24),(23,24,22),(21,22,20),(19,20,18),(17,18,16),(15,16,14),(13,14,12),(11,12,10),(9,10,8),(7,8,6),(5,6,4),(3,4,1),(35,36,32),(36,37,30),(37,38,28),(38,39,26),(30,32,36),(26,28,38),(40,41,14),(41,42,12),(28,30,37),(39,43,24),(43,44,22),(44,45,20),(12,14,41),(42,46,10),(24,26,39),(20,22,44),(45,47,18),(47,40,16),(10,12,42),(46,48,8),(48,49,6),(49,50,4),(22,24,43),(16,18,47),(8,10,46),(4,6,49),(18,20,45),(6,8,48),(14,16,40),(50,51,1),(1,4,50),(32,34,35)),$);
#189=IFCCOLOURRGB($,1.,0.,0.);
#190=IFCSURFACESTYLERENDERING(#189,$,$,$,$,$,$,$,.NOTDEFINED.);
#191=IFCSURFACESTYLE($,.BOTH.,(#190));
#192=IFCSTYLEDITEM(#188,(#191),$);
#193=IFCAXIS2PLACEMENT3D(#7,#9,#10);
#194=IFCSHAPEREPRESENTATION(#55,'Body','Tessellation',(#188));
#195=IFCREPRESENTATIONMAP(#193,#194);
#196=IFCCARTESIANTRANSFORMATIONOPERATOR3DNONUNIFORM($,$,#7,$,$,$,$);
#197=IFCMAPPEDITEM(#195,#196);
#198=IFCPRODUCTDEFINITIONSHAPE($,$,(#199));
#199=IFCSHAPEREPRESENTATION(#55,'Body','MappedRepresentation',(#197));
#200=IFCCARTESIANPOINT((0.,-2.55689110868,1.894));
#201=IFCAXIS2PLACEMENT3D(#200,#9,#10);
#202=IFCLOCALPLACEMENT(#29,#201);
#203=IFCPRESENTATIONLAYERASSIGNMENT('HBH5211-E2N',$,(#85,#133),'36');
#204=IFCPRESENTATIONLAYERASSIGNMENT('SBT10---E-N',$,(#188),'38');
#205=IFCPRESENTATIONLAYERASSIGNMENT('HBN5----E--',$,(#159),'42');
#206=IFCOWNERHISTORY(#3,#5,.READWRITE.,.ADDED.,1780417253,#3,#5,1780417253);
#207=IFCPROPERTYSET('2G0cuqdP95gPxTB18GG9Z6',#206,'Pset_FootingCommon',$,(#210));
#208=IFCOWNERHISTORY(#3,#5,.READWRITE.,.ADDED.,1780417253,#3,#5,1780417253);
#209=IFCRELDEFINESBYPROPERTIES('0Tuox3man84ORabSu7hNJO',#208,$,$,(#65),#207);
#210=IFCPROPERTYSINGLEVALUE('LoadBearing',$,IFCBOOLEAN(.T.),$);
#211=IFCOWNERHISTORY(#3,#5,.READWRITE.,.ADDED.,1780417253,#3,#5,1780417253);
#212=IFCPROPERTYSET('3kCZLi_dT9dPIjp_1PT0Rf',#211,'Pset_WallCommon',$,(#215,#216));
#213=IFCOWNERHISTORY(#3,#5,.READWRITE.,.ADDED.,1780417253,#3,#5,1780417253);
#214=IFCRELDEFINESBYPROPERTIES('2tbZWHU9X22gl2ZaBB$eCV',#213,$,$,(#119),#212);
#215=IFCPROPERTYSINGLEVALUE('IsExternal',$,IFCBOOLEAN(.T.),$);
#216=IFCPROPERTYSINGLEVALUE('LoadBearing',$,IFCBOOLEAN(.T.),$);
#217=IFCOWNERHISTORY(#3,#5,.READWRITE.,.ADDED.,1780417253,#3,#5,1780417253);
#218=IFCPROPERTYSET('179R$QbNn4AeLWhd3b8n4m',#217,'Pset_PavementCommon',$,(#221));
#219=IFCOWNERHISTORY(#3,#5,.READWRITE.,.ADDED.,1780417253,#3,#5,1780417253);
#220=IFCRELDEFINESBYPROPERTIES('0v0o$ErDL3mwzxKwGm9EDM',#219,$,$,(#145),#218);
#221=IFCPROPERTYSINGLEVALUE('SurfaceType',$,IFCLABEL('FLEXIBLE'),$);
#222=IFCMATERIAL('Beton C30/37',$,'concrete');
#223=IFCOWNERHISTORY(#3,#5,.READWRITE.,.MODIFIED.,1780417253,#3,#5,1780417253);
#224=IFCRELASSOCIATESMATERIAL('0g8sjVXlv4vgwQxqt5oox0',#223,$,$,(#119,#65),#222);
#225=IFCMATERIAL('Asphaltbelag',$,'asphalt');
#226=IFCOWNERHISTORY(#3,#5,.READWRITE.,.ADDED.,1780417253,#3,#5,1780417253);
#227=IFCRELASSOCIATESMATERIAL('1qBryOX29A89BxujtpjV8X',#226,$,$,(#145),#225);
ENDSEC;
END-ISO-10303-21;
